<?xml version="1.0" encoding="utf-8"?>
<!-- Generator: Adobe Illustrator 23.0.1, SVG Export Plug-In . SVG Version: 6.00 Build 0)  -->
<svg version="1.1" id="Capa_1" xmlns="http://www.w3.org/2000/svg" xmlns:xlink="http://www.w3.org/1999/xlink" x="0px" y="0px"
	 viewBox="0 0 368 368" style="enable-background:new 0 0 368 368;" xml:space="preserve">
<style type="text/css">
	.st0{fill:#27275A;}
	.st1{fill:#414175;}
</style>
<g>
	<g>
		<circle class="st0" cx="184" cy="304" r="16"/>
	</g>
</g>
<g>
	<g>
		<path class="st0" d="M157.7,146.3l-32-32c-3.1-3.1-8.2-3.1-11.3,0s-3.1,8.2,0,11.3l26.3,26.3l-26.3,26.3c-3.1,3.1-3.1,8.2,0,11.3
			c1.6,1.6,3.6,2.3,5.7,2.3s4.1-0.8,5.7-2.3l32-32C160.8,154.5,160.8,149.5,157.7,146.3z"/>
	</g>
</g>
<g>
	<g>
		<path class="st0" d="M248,176h-64c-4.4,0-8,3.6-8,8s3.6,8,8,8h64c4.4,0,8-3.6,8-8S252.4,176,248,176z"/>
	</g>
</g>
<g>
	<g>
		<path class="st0" d="M248,128h-48c-4.4,0-8,3.6-8,8s3.6,8,8,8h48c4.4,0,8-3.6,8-8S252.4,128,248,128z"/>
	</g>
</g>
<g>
	<g>
		<path class="st0" d="M248,224H120c-4.4,0-8,3.6-8,8s3.6,8,8,8h128c4.4,0,8-3.6,8-8S252.4,224,248,224z"/>
	</g>
</g>
<g>
	<g>
		<path class="st1" d="M264,0c-1.5,0-160,0-160,0s0,0,0,0C93.3,0,83.3,4.2,75.7,11.7S64,29.3,64,40v16c0,0,0,0,0,0s0,0,0,0v272
			c0,22.1,17.9,40,40,40h160c22.1,0,40-17.9,40-40V40C304,17.9,286.1,0,264,0z M80,40c0-6.4,2.5-12.4,7-17c4.5-4.5,10.6-7,17-7h80
			c53.2,0,72.5,0,80-0.6V16c13.2,0,24,10.8,24,24v8H80V40z M288,328c0,13.2-10.8,24-24,24H104c-13.2,0-24-10.8-24-24V64h208V328z"/>
	</g>
</g>
</svg>
