<?xml version="1.0" encoding="utf-8"?>
<!-- Generator: Adobe Illustrator 23.0.1, SVG Export Plug-In . SVG Version: 6.00 Build 0)  -->
<svg version="1.1" id="Layer_1" xmlns="http://www.w3.org/2000/svg" xmlns:xlink="http://www.w3.org/1999/xlink" x="0px" y="0px"
	 viewBox="0 0 480 480" style="enable-background:new 0 0 480 480;" xml:space="preserve">
<style type="text/css">
	.st0{fill:#27275A;}
</style>
<path class="st0" d="M369,368h-16v32H209v16h144v24c0,13.3-10.7,24-24,24H153c-8.6,0-16.5-4.6-20.8-12l-13.9,8
	c7.2,12.4,20.4,20,34.7,20h176c22.1,0,40-17.9,40-40V368z"/>
<path class="st0" d="M233,432h16v16h-16V432z"/>
<path class="st0" d="M281,216v-16h-24.4c-4-51.1-44.5-91.6-95.6-95.6V80h-16v24.4c-5.4,0.4-10.7,1.3-16,2.5V64h128V48H129v-8
	c0-13.3,10.7-24,24-24h176c5.8,0,11.5,2.1,15.9,6l10.6-12C348.2,3.6,338.7,0,329,0H153c-22.1,0-40,17.9-40,40v72
	c-36,15.1-60.6,49.1-63.6,88H25v16h24.4c3.8,51.1,44.4,91.8,95.6,95.6V336h16v-24.4c51.1-3.8,91.8-44.5,95.6-95.6H281z M145,280
	v15.6c-11.2-1-22-4.1-32-9.2V272c0-22.1,17.9-40,40-40s40,17.9,40,40v14.4c-10,5.1-20.8,8.2-32,9.3V280H145z M129,192
	c0-13.3,10.7-24,24-24s24,10.7,24,24s-10.7,24-24,24S129,205.3,129,192z M211.7,273.6c-0.9,0.8-1.8,1.4-2.7,2.2V272
	c0-20.9-11.7-40-30.2-49.7c12.9-10.8,17.6-28.5,11.8-44.3c-5.8-15.8-20.8-26.3-37.6-26.3s-31.8,10.5-37.6,26.3
	c-5.8,15.8-1,33.5,11.8,44.3C108.7,232,97,251.1,97,272v3.8c-0.9-0.7-1.8-1.4-2.7-2.2c-16.6-14.9-26.9-35.5-28.9-57.6H81v-16H65.4
	c3.9-42.2,37.4-75.7,79.6-79.6V136h16v-15.6c42.2,3.9,75.7,37.4,79.6,79.6H225v16h15.6C238.6,238.2,228.2,258.8,211.7,273.6
	L211.7,273.6z"/>
<path class="st0" d="M457,144c4.4,0,8-3.6,8-8V40c0-4.4-3.6-8-8-8H281c-4.4,0-8,3.6-8,8v96c0,4.4,3.6,8,8,8H457z M289,48h160v80H289
	V48z"/>
<path class="st0" d="M305,64h32v16h-32V64z"/>
<path class="st0" d="M353,64h80v16h-80V64z"/>
<path class="st0" d="M305,96h128v16H305V96z"/>
<path class="st0" d="M455.6,160c-6.2,0-12.2,2.3-16.8,6.4L369,227.9V160h-16v80h2.3l-45.5,40.2c-29.6,1.7-52.8,26.2-52.8,55.8v14.1
	c0,7.9-4.5,15.2-11.6,18.7c-3.3,1.7-5.1,5.4-4.2,9s4.1,6.2,7.8,6.2h56c29.7,0,54.1-23.2,55.8-52.8l113.8-129
	c6.6-7.5,8.2-18.2,4.1-27.3C474.6,165.9,465.6,160,455.6,160z M305,368h-36.6c3-5.5,4.6-11.6,4.6-17.9V336c0-20.8,16-38.2,36.8-39.9
	l35.1,35.1C343.2,352,325.8,368,305,368z M462.6,191.6l-110,124.7l-28-28l124.7-110c3.7-3.3,9.4-3.1,12.9,0.4
	C465.7,182.3,465.9,187.9,462.6,191.6z"/>
<path class="st0" d="M9,440h176c4.4,0,8-3.6,8-8v-64c0-4.4-3.6-8-8-8h-56v-40h-16v40H9c-4.4,0-8,3.6-8,8v64C1,436.4,4.6,440,9,440z
	 M17,376h160v48H17V376z"/>
<path class="st0" d="M33,392h40v16H33V392z"/>
<path class="st0" d="M89,392h72v16H89V392z"/>
<path class="st0" d="M9,112h80c4.4,0,8-3.6,8-8V40c0-4.4-3.6-8-8-8H9c-4.4,0-8,3.6-8,8v64C1,108.4,4.6,112,9,112z M17,48h64v48H17
	V48z"/>
<path class="st0" d="M33,64h32v16H33V64z"/>
</svg>
