<?xml version="1.0" encoding="utf-8"?>
<!-- Generator: Adobe Illustrator 23.0.1, SVG Export Plug-In . SVG Version: 6.00 Build 0)  -->
<svg version="1.1" id="Layer_1" xmlns="http://www.w3.org/2000/svg" xmlns:xlink="http://www.w3.org/1999/xlink" x="0px" y="0px"
	 viewBox="0 0 512 512" style="enable-background:new 0 0 512 512;" xml:space="preserve">
<style type="text/css">
	.st0{fill:#57A4FF;}
	.st1{fill:#6666CC;}
	.st2{fill:#27275A;}
</style>
<g>
	<g>
		<g>
			<path class="st0" d="M100,124h56v160h-56V124z"/>
			<path class="st0" d="M188,124h232v64H188V124z"/>
			<path class="st1" d="M480,68H40c-11,0-20,8.9-20,20c0,0,0,0,0,0v292h480V88C500,77,491.1,68,480,68C480,68,480,68,480,68z
				 M452,312c0,11-8.9,20-20,20c0,0,0,0,0,0H88c-11,0-20-8.9-20-20c0,0,0,0,0,0V76h384V312z"/>
			<path class="st1" d="M324,468H196l16-48h96L324,468z"/>
		</g>
		<path class="st0" d="M100,124h56v160h-56V124z"/>
		<path class="st0" d="M188,124h232v64H188V124z"/>
		<path class="st1" d="M452,48v28H68V48c0-11,8.9-20,20-20c0,0,0,0,0,0h344C443,28,452,36.9,452,48C452,48,452,48,452,48z"/>
		<path class="st1" d="M100,124h56v160h-56V124z"/>
		<path class="st1" d="M188,124h232v64H188V124z"/>
	</g>
	<g>
		<path class="st2" d="M476,56h-20V44c0-15.5-12.5-28-28-28H84c-15.5,0-28,12.5-28,28v12H36C20.5,56,8,68.5,8,84v312
			c0,15.5,12.5,28,28,28h160.9l-10.7,32H168c-4.4,0-8,3.6-8,8v16h-56c-4.4,0-8,3.6-8,8s3.6,8,8,8h304c4.4,0,8-3.6,8-8s-3.6-8-8-8
			h-56v-16c0-4.4-3.6-8-8-8h-18.2l-10.7-32H476c15.5,0,28-12.5,28-28V84C504,68.5,491.5,56,476,56L476,56z M72,44
			c0-6.6,5.4-12,12-12h344c6.6,0,12,5.4,12,12v20H72V44z M72,80h368v228c0,6.6-5.4,12-12,12H84c-6.6,0-12-5.4-12-12V80z M336,472v8
			H176v-8H336z M203.1,456l10.7-32h84.5l10.7,32H203.1z M488,396c0,6.6-5.4,12-12,12H36c-6.6,0-12-5.4-12-12v-12h464V396z M488,368
			H24V84c0-6.6,5.4-12,12-12h20v236c0,15.5,12.5,28,28,28h344c15.5,0,28-12.5,28-28V72h20c6.6,0,12,5.4,12,12V368z"/>
		<path class="st2" d="M96,40h-8c-4.4,0-8,3.6-8,8s3.6,8,8,8h8c4.4,0,8-3.6,8-8S100.4,40,96,40z"/>
		<path class="st2" d="M128,40h-8c-4.4,0-8,3.6-8,8s3.6,8,8,8h8c4.4,0,8-3.6,8-8S132.4,40,128,40z"/>
		<path class="st2" d="M160,40h-8c-4.4,0-8,3.6-8,8s3.6,8,8,8h8c4.4,0,8-3.6,8-8S164.4,40,160,40z"/>
		<path class="st2" d="M96,288h56c4.4,0,8-3.6,8-8V120c0-4.4-3.6-8-8-8H96c-4.4,0-8,3.6-8,8v160C88,284.4,91.6,288,96,288z M104,128
			h40v144h-40V128z"/>
		<path class="st2" d="M184,192h232c4.4,0,8-3.6,8-8v-64c0-4.4-3.6-8-8-8H184c-4.4,0-8,3.6-8,8v64C176,188.4,179.6,192,184,192z
			 M192,128h216v48H192V128z"/>
		<path class="st2" d="M184,224h232c4.4,0,8-3.6,8-8s-3.6-8-8-8H184c-4.4,0-8,3.6-8,8S179.6,224,184,224z"/>
		<path class="st2" d="M184,256h232c4.4,0,8-3.6,8-8s-3.6-8-8-8H184c-4.4,0-8,3.6-8,8S179.6,256,184,256z"/>
		<path class="st2" d="M184,288h168c4.4,0,8-3.6,8-8s-3.6-8-8-8H184c-4.4,0-8,3.6-8,8S179.6,288,184,288z"/>
		<path class="st2" d="M384,272h-8c-4.4,0-8,3.6-8,8s3.6,8,8,8h8c4.4,0,8-3.6,8-8S388.4,272,384,272z"/>
	</g>
</g>
</svg>
